<svg width="240" height="37" viewBox="0 0 240 37" fill="none" xmlns="http://www.w3.org/2000/svg">
<path d="M20.7322 10.7917C20.4339 7.95699 18.1469 6.26613 14.5175 6.26613C10.739 6.26613 8.65083 8.00672 8.60112 10.3938C8.5514 12.9798 11.2859 14.1734 14.3683 14.8696L17.6 15.6653C23.7649 17.0578 28.3887 20.1909 28.3887 26.2083C28.3887 32.8226 23.218 37 14.4678 37C5.76722 37 0.19887 32.9718 0 25.2634H7.25875C7.50733 28.8938 10.3909 30.7339 14.3683 30.7339C18.296 30.7339 20.8316 28.8938 20.8316 26.2083C20.8316 23.7715 18.5943 22.6277 14.6666 21.6331L10.739 20.6882C4.67344 19.1962 0.944631 16.1626 0.944631 10.8911C0.944631 4.32661 6.71185 0 14.5672 0C22.522 0 27.792 4.42608 27.8915 10.7917H20.7322Z" fill="#222222"/>
<path d="M29.8325 6.66398V0.497312H49.9183V6.66398H43.6042V30.336H49.9183V36.5027H29.8325V30.336H36.1466V6.66398H29.8325Z" fill="#222222"/>
<path d="M51.1632 6.66398V0.497312H80.6457V6.66398H69.6084V36.5027H62.2005V6.66398H51.1632Z" fill="#222222"/>
<path d="M83.233 36.5027V0.497312H107.396V6.66398H90.6906V15.4167H106.153V21.5833H90.6906V30.336H107.445V36.5027H83.233Z" fill="#222222"/>
<path d="M111.176 36.5027V0.497312H118.634V30.336H134.146V36.5027H111.176Z" fill="#222222"/>
<path d="M168.453 18.5C168.453 30.2366 161.144 37 151.648 37C142.053 37 134.794 30.1868 134.794 18.5C134.794 6.76344 142.053 0 151.648 0C161.144 0 168.453 6.76344 168.453 18.5ZM160.846 18.5C160.846 10.7917 157.216 6.61425 151.648 6.61425C146.08 6.61425 142.401 10.7917 142.401 18.5C142.401 26.2083 146.08 30.3858 151.648 30.3858C157.216 30.3858 160.846 26.2083 160.846 18.5Z" fill="#222222"/>
<path d="M195.7 12.0847C194.705 8.70296 191.971 6.61425 188.043 6.61425C182.475 6.61425 178.696 10.8911 178.696 18.4503C178.696 26.0591 182.375 30.3858 188.093 30.3858C193.239 30.3858 196.296 27.4765 196.396 22.9261H188.59V17.3065H203.605V21.7823C203.605 31.2312 197.142 37 188.043 37C177.951 37 171.09 29.9382 171.09 18.5497C171.09 6.8629 178.398 0 187.894 0C195.998 0 202.262 4.97312 203.257 12.0847H195.7Z" fill="#222222"/>
<path d="M240 18.5C240 30.2366 232.692 37 223.195 37C213.6 37 206.341 30.1868 206.341 18.5C206.341 6.76344 213.6 0 223.195 0C232.692 0 240 6.76344 240 18.5ZM232.393 18.5C232.393 10.7917 228.764 6.61425 223.195 6.61425C217.627 6.61425 213.948 10.7917 213.948 18.5C213.948 26.2083 217.627 30.3858 223.195 30.3858C228.764 30.3858 232.393 26.2083 232.393 18.5Z" fill="#222222"/>
</svg>
