<svg width="190" height="54" viewBox="0 0 190 54" fill="none" xmlns="http://www.w3.org/2000/svg">
<path d="M0 53.2742V0.725806H10.9991V44.2742H33.8772V53.2742H0Z" fill="white"/>
<path d="M84.4761 27C84.4761 44.129 73.6969 54 59.6914 54C45.5392 54 34.8334 44.0565 34.8334 27C34.8334 9.87097 45.5392 0 59.6914 0C73.6969 0 84.4761 9.87097 84.4761 27ZM73.257 27C73.257 15.75 67.9041 9.65323 59.6914 9.65323C51.4787 9.65323 46.0525 15.75 46.0525 27C46.0525 38.25 51.4787 44.3468 59.6914 44.3468C67.9041 44.3468 73.257 38.25 73.257 27Z" fill="white"/>
<path d="M124.662 17.6371C123.196 12.7016 119.163 9.65323 113.37 9.65323C105.157 9.65323 99.5844 15.8952 99.5844 26.9274C99.5844 38.0323 105.011 44.3468 113.443 44.3468C121.033 44.3468 125.542 40.1008 125.689 33.4597H114.177V25.2581H136.321V31.7903C136.321 45.5806 126.789 54 113.37 54C98.4845 54 88.3653 43.6936 88.3653 27.0726C88.3653 10.0161 99.1445 0 113.15 0C125.102 0 134.342 7.25806 135.808 17.6371H124.662Z" fill="white"/>
<path d="M190 27C190 44.129 179.221 54 165.215 54C151.063 54 140.357 44.0565 140.357 27C140.357 9.87097 151.063 0 165.215 0C179.221 0 190 9.87097 190 27ZM178.781 27C178.781 15.75 173.428 9.65323 165.215 9.65323C157.003 9.65323 151.576 15.75 151.576 27C151.576 38.25 157.003 44.3468 165.215 44.3468C173.428 44.3468 178.781 38.25 178.781 27Z" fill="white"/>
</svg>
